<svg width="33" height="32" viewBox="0 0 33 32" fill="none" xmlns="http://www.w3.org/2000/svg">
<path fill-rule="evenodd" clip-rule="evenodd" d="M28.875 2.087H4.125C3.57799 2.087 3.05339 2.30688 2.66659 2.69827C2.2798 3.08966 2.0625 3.6205 2.0625 4.174V20.87C2.0625 21.4235 2.2798 21.9544 2.66659 22.3458C3.05339 22.7371 3.57799 22.957 4.125 22.957H9.28125C9.92164 22.957 10.5532 23.1079 11.126 23.3977C11.6988 23.6875 12.197 24.1082 12.5813 24.6266L16.5 29.913L20.4187 24.6266C20.803 24.1082 21.3012 23.6875 21.874 23.3977C22.4468 23.1079 23.0784 22.957 23.7188 22.957H28.875C29.422 22.957 29.9466 22.7371 30.3334 22.3458C30.7202 21.9544 30.9375 21.4235 30.9375 20.87V4.174C30.9375 3.6205 30.7202 3.08966 30.3334 2.69827C29.9466 2.30688 29.422 2.087 28.875 2.087ZM4.125 0C3.03098 0 1.98177 0.43976 1.20818 1.22254C0.434597 2.00531 0 3.06699 0 4.174L0 20.87C0 21.977 0.434597 23.0387 1.20818 23.8215C1.98177 24.6043 3.03098 25.044 4.125 25.044H9.28125C9.60144 25.044 9.91724 25.1195 10.2036 25.2644C10.49 25.4092 10.7391 25.6196 10.9313 25.8788L14.85 31.1652C15.0421 31.4244 15.2912 31.6348 15.5776 31.7797C15.864 31.9246 16.1798 32 16.5 32C16.8202 32 17.136 31.9246 17.4224 31.7797C17.7088 31.6348 17.9579 31.4244 18.15 31.1652L22.0688 25.8788C22.2609 25.6196 22.51 25.4092 22.7964 25.2644C23.0828 25.1195 23.3986 25.044 23.7188 25.044H28.875C29.969 25.044 31.0182 24.6043 31.7918 23.8215C32.5654 23.0387 33 21.977 33 20.87V4.174C33 3.06699 32.5654 2.00531 31.7918 1.22254C31.0182 0.43976 29.969 0 28.875 0L4.125 0Z" fill="#23A6F0"/>
</svg>
