<svg width="20" height="20" viewBox="0 0 20 20" fill="none" xmlns="http://www.w3.org/2000/svg">
<path d="M19.1306 7.41927C19.0729 7.24946 18.9668 7.10025 18.8253 6.99006C18.6838 6.87987 18.5132 6.81353 18.3344 6.79922L13.1053 6.38371L10.8424 1.3747C10.7704 1.21337 10.6532 1.07634 10.5049 0.980156C10.3567 0.883971 10.1838 0.832739 10.0071 0.832642C9.83044 0.832545 9.6575 0.883587 9.50917 0.979609C9.36084 1.07563 9.24348 1.21253 9.17124 1.37378L6.90842 6.38371L1.67927 6.79922C1.50358 6.81314 1.33562 6.87738 1.19548 6.98425C1.05534 7.09113 0.948961 7.23612 0.889066 7.40187C0.829171 7.56762 0.818296 7.74712 0.857744 7.91889C0.897192 8.09066 0.985291 8.24743 1.1115 8.37044L4.97581 12.1375L3.60913 18.0555C3.56763 18.2347 3.58093 18.4221 3.6473 18.5936C3.71368 18.7651 3.83006 18.9127 3.98135 19.0172C4.13263 19.1217 4.31184 19.1783 4.49571 19.1797C4.67959 19.1811 4.85964 19.1272 5.0125 19.025L10.0068 15.6955L15.0012 19.025C15.1574 19.1288 15.3417 19.1822 15.5292 19.1781C15.7167 19.1739 15.8984 19.1125 16.0499 19.002C16.2015 18.8916 16.3156 18.7373 16.3768 18.5601C16.4381 18.3828 16.4436 18.1911 16.3926 18.0106L14.715 12.1403L18.8756 8.39612C19.148 8.15031 19.248 7.7669 19.1306 7.41927Z" fill="#F3CD03"/>
</svg>
